<svg width="60" height="24" viewBox="0 0 60 24" fill="none" xmlns="http://www.w3.org/2000/svg">
<path d="M0 0.0234375H27.4896V5.62737H0V0.0234375ZM0 9.19781H27.4896V14.8018H0V9.19781ZM0 18.3958H27.4896V23.9998H0V18.3958Z" fill="black"/>
<path d="M33.0029 0.0236504H51.5836C56.2103 0.0236504 60.0003 3.66502 60.0003 8.11034C60.0003 12.5557 56.2103 16.197 51.5836 16.197H38.8355V24H33.0029V10.6167H51.5836C53.011 10.6167 54.1923 9.48177 54.1923 8.11034C54.1923 6.73892 53.011 5.60393 51.5836 5.60393H33.0029V0V0.0236504Z" fill="black"/>
<path d="M29.7295 0.0234375V0.0943706L33.0026 5.55643V0.0234375H29.7295Z" fill="black"/>
</svg>
