<svg width="367" height="57" viewBox="0 0 367 57" fill="none" xmlns="http://www.w3.org/2000/svg">
<path d="M0.759766 55.9599V47.1499H1.92977V55.9599H0.759766Z" fill="white"/>
<path d="M7.23975 55.9599V47.1499H8.43975L13.0597 54.0599V47.1499H14.1797V55.9599H12.9797L8.35975 49.0399V55.9599H7.23975Z" fill="white"/>
<path d="M21.6397 55.9599V48.1899H18.7397V47.1499H25.7197V48.1899H22.8097V55.9599H21.6497H21.6397Z" fill="white"/>
<path d="M30.21 55.9599V47.1499H36.58V48.1899H31.38V50.8899H36.25V51.9199H31.38V54.9199H36.79V55.9599H30.22H30.21Z" fill="white"/>
<path d="M41.6196 55.9599V47.1499H42.7896V54.9199H47.1296V55.9599H41.6296H41.6196Z" fill="white"/>
<path d="M51.73 55.9599V47.1499H52.9V54.9199H57.24V55.9599H51.74H51.73Z" fill="white"/>
<path d="M62.0898 55.9599V47.1499H63.2498V55.9599H62.0898Z" fill="white"/>
<path d="M72.6995 52.5098V51.4798H76.4296V54.7398C75.8595 55.1998 75.2696 55.5398 74.6596 55.7698C74.0496 55.9998 73.4296 56.1198 72.7896 56.1198C71.9196 56.1198 71.1396 55.9398 70.4296 55.5598C69.7196 55.1898 69.1896 54.6498 68.8296 53.9498C68.4696 53.2498 68.2896 52.4698 68.2896 51.5998C68.2896 50.7298 68.4696 49.9398 68.8296 49.1998C69.1896 48.4598 69.6995 47.9098 70.3795 47.5498C71.0495 47.1898 71.8295 47.0098 72.6995 47.0098C73.3395 47.0098 73.9096 47.1098 74.4296 47.3198C74.9396 47.5298 75.3495 47.8098 75.6395 48.1798C75.9295 48.5498 76.1495 49.0298 76.3095 49.6198L75.2596 49.9098C75.1296 49.4598 74.9595 49.1098 74.7695 48.8498C74.5695 48.5898 74.2896 48.3898 73.9296 48.2298C73.5696 48.0798 73.1596 47.9998 72.7196 47.9998C72.1896 47.9998 71.7295 48.0798 71.3395 48.2398C70.9495 48.3998 70.6396 48.6198 70.3996 48.8798C70.1596 49.1398 69.9795 49.4298 69.8395 49.7498C69.6195 50.2898 69.4995 50.8898 69.4995 51.5198C69.4995 52.2998 69.6296 52.9598 69.9096 53.4898C70.1796 54.0198 70.5695 54.4098 71.0895 54.6698C71.6095 54.9298 72.1495 55.0498 72.7395 55.0498C73.2395 55.0498 73.7396 54.9498 74.2196 54.7598C74.6996 54.5698 75.0595 54.3598 75.3095 54.1398V52.4998H72.7196L72.6995 52.5098Z" fill="white"/>
<path d="M81.4399 55.9599V47.1499H87.8099V48.1899H82.6099V50.8899H87.4799V51.9199H82.6099V54.9199H88.0199V55.9599H81.4499H81.4399Z" fill="white"/>
<path d="M92.8799 55.9599V47.1499H94.0799L98.6999 54.0599V47.1499H99.8199V55.9599H98.6199L93.9999 49.0399V55.9599H92.8799Z" fill="white"/>
<path d="M107.29 55.9599V48.1899H104.39V47.1499H111.37V48.1899H108.46V55.9599H107.29Z" fill="white"/>
<path d="M134.04 55.9599L137.42 47.1499H138.68L142.28 55.9599H140.95L139.92 53.2899H136.24L135.27 55.9599H134.03H134.04ZM136.58 52.3499H139.57L138.65 49.9099C138.37 49.1699 138.16 48.5599 138.03 48.0799C137.92 48.6399 137.76 49.2099 137.56 49.7599L136.59 52.3399L136.58 52.3499Z" fill="white"/>
<path d="M150.6 52.5098V51.4798H154.33V54.7398C153.76 55.1998 153.17 55.5398 152.56 55.7698C151.95 55.9998 151.33 56.1198 150.69 56.1198C149.82 56.1198 149.04 55.9398 148.33 55.5598C147.62 55.1898 147.09 54.6498 146.73 53.9498C146.37 53.2498 146.19 52.4698 146.19 51.5998C146.19 50.7298 146.37 49.9398 146.73 49.1998C147.09 48.4598 147.6 47.9098 148.28 47.5498C148.95 47.1898 149.73 47.0098 150.6 47.0098C151.24 47.0098 151.81 47.1098 152.33 47.3198C152.84 47.5298 153.25 47.8098 153.54 48.1798C153.83 48.5498 154.05 49.0298 154.21 49.6198L153.16 49.9098C153.03 49.4598 152.86 49.1098 152.67 48.8498C152.47 48.5898 152.19 48.3898 151.83 48.2298C151.47 48.0798 151.06 47.9998 150.62 47.9998C150.09 47.9998 149.63 48.0798 149.24 48.2398C148.85 48.3998 148.54 48.6198 148.3 48.8798C148.06 49.1398 147.88 49.4298 147.74 49.7498C147.52 50.2898 147.4 50.8898 147.4 51.5198C147.4 52.2998 147.54 52.9598 147.81 53.4898C148.08 54.0198 148.47 54.4098 148.99 54.6698C149.51 54.9298 150.05 55.0498 150.64 55.0498C151.14 55.0498 151.64 54.9498 152.12 54.7598C152.6 54.5698 152.96 54.3598 153.21 54.1398V52.4998H150.62L150.6 52.5098Z" fill="white"/>
<path d="M158.76 53.32V52.23H162.08V53.32H158.76Z" fill="white"/>
<path d="M168.93 55.9599V48.1899H166.03V47.1499H173.01V48.1899H170.1V55.9599H168.94H168.93Z" fill="white"/>
<path d="M177.5 55.9599V47.1499H183.87V48.1899H178.67V50.8899H183.54V51.9199H178.67V54.9199H184.08V55.9599H177.51H177.5Z" fill="white"/>
<path d="M195.23 52.88L196.4 53.17C196.16 54.13 195.72 54.86 195.08 55.36C194.45 55.86 193.67 56.11 192.75 56.11C191.83 56.11 191.03 55.92 190.43 55.53C189.84 55.14 189.38 54.58 189.07 53.85C188.76 53.12 188.6 52.33 188.6 51.49C188.6 50.57 188.78 49.77 189.13 49.09C189.48 48.41 189.98 47.89 190.63 47.53C191.28 47.18 191.99 47 192.77 47C193.65 47 194.39 47.22 194.99 47.67C195.59 48.12 196.01 48.75 196.25 49.56L195.1 49.83C194.9 49.19 194.6 48.72 194.21 48.43C193.82 48.14 193.33 47.99 192.75 47.99C192.07 47.99 191.51 48.15 191.05 48.48C190.6 48.8 190.28 49.24 190.09 49.79C189.91 50.34 189.81 50.9 189.81 51.48C189.81 52.23 189.92 52.88 190.14 53.44C190.36 54 190.7 54.42 191.16 54.69C191.62 54.97 192.12 55.1 192.66 55.1C193.31 55.1 193.87 54.91 194.32 54.54C194.77 54.16 195.08 53.6 195.24 52.86L195.23 52.88Z" fill="white"/>
<path d="M201.14 55.9599V47.1499H202.31V50.7699H206.89V47.1499H208.05V55.9599H206.89V51.8099H202.31V55.9599H201.14Z" fill="white"/>
<path d="M213.25 55.9599V47.1499H214.44L219.06 54.0599V47.1499H220.18V55.9599H218.98L214.36 49.0399V55.9599H213.24H213.25Z" fill="white"/>
<path d="M225.62 55.9599V47.1499H226.78V55.9599H225.62Z" fill="white"/>
<path d="M238.39 52.88L239.55 53.17C239.31 54.13 238.87 54.86 238.23 55.36C237.6 55.86 236.82 56.11 235.9 56.11C234.98 56.11 234.18 55.92 233.58 55.53C232.99 55.14 232.53 54.58 232.22 53.85C231.91 53.12 231.75 52.33 231.75 51.49C231.75 50.57 231.93 49.77 232.28 49.09C232.63 48.41 233.13 47.89 233.78 47.53C234.43 47.18 235.14 47 235.92 47C236.8 47 237.54 47.22 238.14 47.67C238.74 48.12 239.16 48.75 239.4 49.56L238.25 49.83C238.05 49.19 237.75 48.72 237.36 48.43C236.97 48.14 236.48 47.99 235.9 47.99C235.22 47.99 234.66 48.15 234.2 48.48C233.75 48.8 233.43 49.24 233.24 49.79C233.06 50.34 232.96 50.9 232.96 51.48C232.96 52.23 233.07 52.88 233.29 53.44C233.51 54 233.85 54.42 234.31 54.69C234.77 54.97 235.27 55.1 235.81 55.1C236.46 55.1 237.02 54.91 237.47 54.54C237.92 54.16 238.23 53.6 238.39 52.86V52.88Z" fill="white"/>
<path d="M243.29 55.9599L246.67 47.1499H247.92L251.52 55.9599H250.19L249.16 53.2899H245.48L244.51 55.9599H243.27H243.29ZM245.83 52.3499H248.81L247.89 49.9099C247.61 49.1699 247.4 48.5599 247.27 48.0799C247.16 48.6399 247 49.2099 246.8 49.7599L245.83 52.3399V52.3499Z" fill="white"/>
<path d="M255.69 55.9599V47.1499H256.86V54.9199H261.2V55.9599H255.7H255.69Z" fill="white"/>
<path d="M291.75 52.88L292.91 53.17C292.67 54.13 292.23 54.86 291.59 55.36C290.96 55.86 290.18 56.11 289.26 56.11C288.34 56.11 287.54 55.92 286.94 55.53C286.35 55.14 285.89 54.58 285.58 53.85C285.27 53.12 285.11 52.33 285.11 51.49C285.11 50.57 285.29 49.77 285.64 49.09C285.99 48.41 286.49 47.89 287.14 47.53C287.79 47.18 288.5 47 289.28 47C290.16 47 290.9 47.22 291.5 47.67C292.1 48.12 292.52 48.75 292.76 49.56L291.61 49.83C291.41 49.19 291.11 48.72 290.72 48.43C290.33 48.14 289.84 47.99 289.26 47.99C288.58 47.99 288.02 48.15 287.56 48.48C287.11 48.8 286.79 49.24 286.6 49.79C286.42 50.34 286.32 50.9 286.32 51.48C286.32 52.23 286.43 52.88 286.65 53.44C286.87 54 287.21 54.42 287.67 54.69C288.13 54.97 288.63 55.1 289.17 55.1C289.82 55.1 290.38 54.91 290.83 54.54C291.28 54.17 291.59 53.6 291.75 52.86V52.88Z" fill="white"/>
<path d="M297.26 51.6798C297.26 50.2198 297.65 49.0698 298.44 48.2498C299.22 47.4198 300.24 47.0098 301.48 47.0098C302.29 47.0098 303.02 47.1998 303.68 47.5898C304.33 47.9798 304.83 48.5198 305.17 49.2098C305.51 49.8998 305.68 50.6898 305.68 51.5698C305.68 52.4498 305.5 53.2598 305.14 53.9698C304.78 54.6698 304.27 55.2098 303.61 55.5698C302.95 55.9298 302.24 56.1098 301.47 56.1098C300.64 56.1098 299.9 55.9098 299.25 55.5098C298.6 55.1098 298.1 54.5598 297.77 53.8698C297.43 53.1798 297.27 52.4398 297.27 51.6698L297.26 51.6798ZM298.46 51.6898C298.46 52.7498 298.75 53.5898 299.32 54.1998C299.89 54.8098 300.61 55.1198 301.47 55.1198C302.33 55.1198 303.07 54.8098 303.64 54.1998C304.21 53.5798 304.49 52.7098 304.49 51.5798C304.49 50.8598 304.37 50.2398 304.13 49.6998C303.89 49.1698 303.53 48.7498 303.07 48.4598C302.6 48.1698 302.08 48.0198 301.5 48.0198C300.67 48.0198 299.97 48.2998 299.37 48.8698C298.78 49.4398 298.48 50.3798 298.48 51.7098L298.46 51.6898Z" fill="white"/>
<path d="M310.42 55.9601V47.1501H312.17L314.25 53.3801C314.44 53.9601 314.58 54.4001 314.67 54.6801C314.77 54.3601 314.93 53.8901 315.14 53.2701L317.25 47.1401H318.82V55.9501H317.7V48.5801L315.14 55.9501H314.09L311.54 48.4501V55.9501H310.42V55.9601Z" fill="white"/>
<path d="M323.98 55.9599V47.1499H327.3C327.88 47.1499 328.33 47.1799 328.64 47.2299C329.07 47.2999 329.43 47.4399 329.73 47.6399C330.02 47.8399 330.26 48.1299 330.44 48.4899C330.62 48.8499 330.71 49.2599 330.71 49.6899C330.71 50.4399 330.47 51.0699 329.99 51.5899C329.51 52.1099 328.65 52.3699 327.41 52.3699H325.15V55.9499H323.99L323.98 55.9599ZM325.14 51.3499H327.42C328.17 51.3499 328.71 51.2099 329.02 50.9299C329.34 50.6499 329.49 50.2599 329.49 49.7499C329.49 49.3799 329.4 49.0699 329.21 48.7999C329.02 48.5399 328.78 48.3599 328.47 48.2799C328.27 48.2299 327.91 48.1999 327.38 48.1999H325.13V51.3499H325.14Z" fill="white"/>
<path d="M333.57 55.9599L336.95 47.1499H338.2L341.8 55.9599H340.47L339.44 53.2899H335.76L334.79 55.9599H333.55H333.57ZM336.11 52.3499H339.09L338.17 49.9099C337.89 49.1699 337.68 48.5599 337.55 48.0799C337.44 48.6399 337.28 49.2099 337.08 49.7599L336.11 52.3399V52.3499Z" fill="white"/>
<path d="M346 55.9599V47.1499H347.19L351.81 54.0599V47.1499H352.93V55.9599H351.73L347.11 49.0399V55.9599H345.99H346Z" fill="white"/>
<path d="M360.65 55.9601V52.2301L357.26 47.1501H358.68L360.42 49.8001C360.74 50.3001 361.04 50.7901 361.31 51.2901C361.57 50.8301 361.89 50.3101 362.27 49.7301L363.98 47.1401H365.34L361.83 52.2201V55.9501H360.66L360.65 55.9601Z" fill="white"/>
<path d="M0 0.00976562H39.14V8.30977H0V0.00976562ZM0 13.6298H39.14V21.9298H0V13.6298ZM0 27.2598H39.14V35.5598H0V27.2598Z" fill="white"/>
<path d="M52.0702 0.00976562L63.2702 27.2598L74.4602 0.00976562H84.0402L68.0502 35.5598H58.4702L42.4902 0.00976562H52.0702Z" fill="white"/>
<path d="M87.3999 0.00976562H126.54V8.30977H87.3999V0.00976562ZM87.3999 13.6298H126.54V21.9298H87.3999V13.6298ZM87.3999 27.2598H126.54V35.5598H87.3999V27.2598Z" fill="white"/>
<path d="M262.84 24.3098C262.84 27.5198 261.71 30.2098 259.45 32.3498C257.19 34.4798 254.45 35.5498 251.22 35.5498H233.17C229.94 35.5498 227.2 34.4798 224.94 32.3498C222.68 30.2098 221.55 27.5198 221.55 24.3098V11.2598C221.55 8.04977 222.68 5.35977 224.94 3.21977C227.2 1.07977 229.95 0.00976562 233.17 0.00976562H251.22C254.45 0.00976562 257.19 1.07977 259.45 3.20977C261.71 5.34977 262.84 8.03977 262.84 11.2498V24.2998V24.3098ZM254.54 11.2698C254.54 9.29977 253.43 8.30977 251.22 8.30977H233.17C230.96 8.30977 229.85 9.29977 229.85 11.2698V24.2898C229.85 26.2598 230.96 27.2498 233.17 27.2498H251.22C253.43 27.2498 254.54 26.2598 254.54 24.2898V11.2698Z" fill="white"/>
<path d="M305.53 35.5598H297.23L275.86 11.6298V35.5598H267.56V0.00976562H275.86L297.23 23.7998V0.00976562H305.53V35.5598Z" fill="white"/>
<path d="M311.02 35.5598V0.00976562H319.32V35.5598H311.02Z" fill="white"/>
<path d="M206.22 0.00976562H175.08V0.139766L179.75 8.22977V8.29977H206.21C208.23 8.29977 209.91 9.97976 209.91 11.9998C209.91 14.0198 208.23 15.6998 206.21 15.6998H179.75V35.5498H188.05V23.9998H206.22C212.82 23.9998 218.22 18.5998 218.22 11.9998C218.22 5.39977 212.82 0.00976562 206.22 0.00976562Z" fill="white"/>
<path d="M357.8 24.2898C357.8 26.2598 356.69 27.2498 354.48 27.2498H336.43C334.22 27.2498 333.11 26.2598 333.11 24.2898V11.2698C333.11 9.29977 334.22 8.30977 336.43 8.30977H354.48C356.69 8.30977 357.8 9.29977 357.8 11.2698V13.6298H366.1V11.2498C366.1 8.03977 364.97 5.34977 362.71 3.20977C360.45 1.07977 357.71 0.00976562 354.48 0.00976562H336.43C333.2 0.00976562 330.46 1.07977 328.2 3.20977C325.94 5.34977 324.81 8.03977 324.81 11.2498V24.2998C324.81 27.5098 325.94 30.1998 328.2 32.3398C330.46 34.4698 333.2 35.5398 336.43 35.5398H354.48C357.71 35.5398 360.45 34.4698 362.71 32.3398C364.97 30.1998 366.1 27.5098 366.1 24.2998V21.9198H357.8V24.2798V24.2898Z" fill="white"/>
<path d="M159.49 35.5599H169.07L161.8 25.1899H151.96L159.49 35.5599Z" fill="white"/>
<path d="M162.61 0.01H130.08V0.14L134.75 8.23L143.05 8.3H162.61C164.63 8.3 166.31 9.98 166.31 12C166.31 14.02 164.63 15.7 162.61 15.7H134.75V35.61H143.05V24H158.47H162.61C169.21 24 174.61 18.6 174.61 12C174.61 5.4 169.21 0 162.61 0V0.01Z" fill="white"/>
</svg>
